<svg xmlns="http://www.w3.org/2000/svg" width="27" height="22" viewBox="0 0 27 22">
  <g id="dogs" transform="translate(-0.5)">
    <path id="Caminho_15" data-name="Caminho 15" d="M14,10h1.652a2,2,0,0,1,1.518,3.3l-1.618,1.887A4.5,4.5,0,0,0,24.5,14.5a1.5,1.5,0,0,1,3,0A7.5,7.5,0,0,1,14,19,7.5,7.5,0,0,1,.5,14.5a1.5,1.5,0,0,1,3,0,4.5,4.5,0,0,0,8.948.689L10.83,13.3A2,2,0,0,1,12.35,10Z" fill="#333" fill-rule="evenodd"/>
    <circle id="Elipse_3" data-name="Elipse 3" cx="3" cy="3" r="3" transform="translate(18)" fill="#333"/>
    <circle id="Elipse_4" data-name="Elipse 4" cx="3" cy="3" r="3" transform="translate(4)" fill="#333"/>
  </g>
</svg>