<svg xmlns="http://www.w3.org/2000/svg" width="20" height="20" viewBox="0 0 20 20"><defs><style>.a{fill:#333;fill-rule:evenodd;}</style></defs><path class="a" d="M7,4h3a3,3,0,0,1,3,3v3a3,3,0,0,1-3,3H7a3,3,0,0,1-3-3V7A3,3,0,0,1,7,4ZM7,6A1,1,0,0,0,6,7v3a1,1,0,0,0,1,1h3a1,1,0,0,0,1-1V7a1,1,0,0,0-1-1Zm0,9h3a3,3,0,0,1,3,3v3a3,3,0,0,1-3,3H7a3,3,0,0,1-3-3V18a3,3,0,0,1,3-3Zm0,2a1,1,0,0,0-1,1v3a1,1,0,0,0,1,1h3a1,1,0,0,0,1-1V18a1,1,0,0,0-1-1ZM18,4h3a3,3,0,0,1,3,3v3a3,3,0,0,1-3,3H18a3,3,0,0,1-3-3V7a3,3,0,0,1,3-3Zm0,2a1,1,0,0,0-1,1v3a1,1,0,0,0,1,1h3a1,1,0,0,0,1-1V7a1,1,0,0,0-1-1Zm0,9h3a3,3,0,0,1,3,3v3a3,3,0,0,1-3,3H18a3,3,0,0,1-3-3V18A3,3,0,0,1,18,15Zm0,2a1,1,0,0,0-1,1v3a1,1,0,0,0,1,1h3a1,1,0,0,0,1-1V18a1,1,0,0,0-1-1Z" transform="translate(-4 -4)"/></svg>