<svg xmlns="http://www.w3.org/2000/svg" width="18" height="18" viewBox="0 0 18 18"><defs><style>.a{fill:#333;fill-rule:evenodd;}</style></defs><g transform="translate(-5 -5)"><path class="a" d="M19.293,9.293a1,1,0,0,1,1.414,0l4,4a1,1,0,0,1,0,1.414l-4,4a1,1,0,0,1-1.414-1.414L21.586,15H12a1,1,0,0,1,0-2h9.586l-2.293-2.293A1,1,0,0,1,19.293,9.293Z" transform="translate(-2)"/><path class="a" d="M5,6A1,1,0,0,1,6,5h9a1,1,0,0,1,1,1v4a1,1,0,0,1-2,0V7H7V21h7V18a1,1,0,0,1,2,0v4a1,1,0,0,1-1,1H6a1,1,0,0,1-1-1Z"/></g></svg>